<svg id="Layer_1" data-name="Layer 1" xmlns="http://www.w3.org/2000/svg" viewBox="0 0 102.4 28.99"><defs><style>.cls-1{fill-rule:evenodd;}</style></defs><path class="cls-1" d="M5.27.09A9.65,9.65,0,0,0,.14,6.56c-.92,3.93,2.91,5.59,3.23,5s-.69-.85-.91-2.9A8.64,8.64,0,0,1,5,1.83c.29-.24.27.1.27.71L5.17,15.65a18.31,18.31,0,0,1-.32,4.56c-.21.89-.55,1.49-.3,1.73s1.52-.37,2.23-1.36A7.46,7.46,0,0,0,8,16.43c.07-1.87.06-4.84.07-6.52s0-6.08,0-8.81C8,.43,6.14-.27,5.27.1ZM79.7,13.22a8.72,8.72,0,0,1-.79,3.4c-.77,1.55-2.39,2-3.08-.2a12.67,12.67,0,0,1-.11-5c.27-1.72,1-3,2.29-2.92S79.84,10.26,79.7,13.22Zm-21,9c0,2.42-.4,4.54-1.21,5.17a1.47,1.47,0,0,1-2.4-1.56c.28-1.56,1.63-3.16,3.62-5.11Zm-.31-9.06a9.82,9.82,0,0,1-.8,3.42c-.77,1.55-2.39,2-3.07-.2a11.18,11.18,0,0,1-.12-4.76c.3-1.61,1-3.12,2.29-3.12S58.58,9.9,58.41,13.2Zm-12.16,0a8.68,8.68,0,0,1-.78,3.44c-.8,1.55-2.39,2-3.09-.2a12.11,12.11,0,0,1-.11-5c.3-1.77,1.08-3,2.29-2.9S46.41,10.25,46.25,13.18Zm55.69,1.64c-.3,0-.44.32-.55.84-.4,1.83-.82,2.25-1.36,2.25s-1.14-.9-1.29-2.72a58.65,58.65,0,0,1,.06-6.68c0-.53-.13-1.06-1.57-1.58-.62-.23-1.52-.56-2,.52a27.11,27.11,0,0,0-1.88,6.47c0,.06-.07.07-.09-.05A51.72,51.72,0,0,1,93,8.62a1.52,1.52,0,0,0-.78-1.49c-.42-.27-1.7-.74-2.17-.18a12.07,12.07,0,0,0-1.33,3.15l-.67,2V7.67A.61.61,0,0,0,87.68,7a8.29,8.29,0,0,0-1.63-.34c-.44,0-.55.25-.55.61,0,0-.07,4.21-.07,7.13v.42c-.24,1.34-1,3.16-1.89,3.16s-1.27-.76-1.27-4.24c0-2,.06-2.91.09-4.38,0-.85,0-1.49,0-1.64,0-.45-.79-.68-1.15-.77a3.35,3.35,0,0,0-.93-.1.58.58,0,0,0-.61.56V8A3.34,3.34,0,0,0,78.06,6.6,3.21,3.21,0,0,0,74.37,8a8.43,8.43,0,0,0-1.5,4.28,12.85,12.85,0,0,0,.15,3.9c-.3,1.31-.87,1.85-1.48,1.85-.9,0-1.54-1.47-1.47-4a23.28,23.28,0,0,1,.74-4.52,1.43,1.43,0,0,0-.28-1.45,1.8,1.8,0,0,0-1.8-.3c-.64.15-1.54.31-2.36.43a4.24,4.24,0,0,0,.09-.55C66.67,5.8,64.67,6,64,6.54a2.27,2.27,0,0,0-.75,1.51,1.77,1.77,0,0,0,.82,1.73A20.39,20.39,0,0,1,61,16.33V15.7c0-3,0-5.44,0-6.3s.06-1.48.06-1.63c0-.33-.2-.45-.6-.61a4.54,4.54,0,0,0-1.22-.27c-.54,0-.88.25-.87.59V8A3.39,3.39,0,0,0,56.77,6.6,3.2,3.2,0,0,0,53.08,8a9.22,9.22,0,0,0-1.51,4.28,13.59,13.59,0,0,0,.08,3.66c-.2,1-.8,2.08-1.47,2.08-.86,0-1.36-.75-1.36-4.23,0-2,.06-2.91.09-4.38,0-.85.05-1.49.05-1.64,0-.45-.79-.68-1.15-.77a2.87,2.87,0,0,0-1-.09.62.62,0,0,0-.57.54V8A3.37,3.37,0,0,0,44.61,6.6,3.22,3.22,0,0,0,40.92,8a8.12,8.12,0,0,0-1.5,4.26,14.25,14.25,0,0,0-.11,1.85c-.27,1.64-1.46,3.53-2.43,3.53-.57,0-1.11-1.1-1.11-3.44,0-3.13.2-7.58.22-8l1.47,0c.62,0,1.17,0,2,0,.41,0,.8-1.49.38-1.67a14.83,14.83,0,0,0-2.09-.16c-.45,0-1.7-.1-1.7-.1s.12-2.95.15-3.26-.32-.4-.52-.48a6.7,6.7,0,0,0-1.39-.4c-.69-.14-1,0-1.06.58-.09.88-.13,3.46-.13,3.46-.51,0-2.24-.1-2.74-.1s-1,2-.33,2l2.9.08,0,5.92v.43a6.83,6.83,0,0,1-2.15,3.8c.36-1.63-.38-2.85-1.7-3.89-.49-.39-1.45-1.11-2.53-1.91A6.3,6.3,0,0,0,27.7,8.61c.39-.87.41-1.86-.55-2.08a2.86,2.86,0,0,0-3.29,2A2.36,2.36,0,0,0,24.31,11l.14.17c-.36.69-.85,1.61-1.27,2.34-1.15,2-2,3.58-2.69,3.58S20,15.46,20,14c0-1.3.09-3.24.17-5.26a1.44,1.44,0,0,0-.87-1.39,4,4,0,0,0-1.48-.63c-.64,0-2.45.09-4.17,5.05-.21.63-.63,1.76-.63,1.76l0-6a.4.4,0,0,0-.24-.36A4.29,4.29,0,0,0,11,6.68c-.33,0-.49.16-.49.46l-.07,9.33a11.93,11.93,0,0,0,.1,1.89,1.91,1.91,0,0,0,.32.83.88.88,0,0,0,.56.36c.26.06,1.62.23,1.69-.29a19.4,19.4,0,0,1,.81-3.8c1.1-3.91,2.55-5.82,3.24-6.49.12-.13.25-.13.24.06l-.19,4.82c-.19,4.87.7,5.77,2,5.77,1,0,2.34-1,3.81-3.39l2.45-4.08,1.43,1.32c1.16,1.09,1.54,2.14,1.28,3.13a1.34,1.34,0,0,1-2.21.78c-.38-.23-.54-.4-.91-.65a.66.66,0,0,0-.71,0,2.45,2.45,0,0,0-.91,1.4c-.16.55.4.85,1,1.11a8,8,0,0,0,2.27.45c2.66.09,4.8-1.29,6.29-4.84.27,3.06,1.4,4.8,3.37,4.8,1.31,0,2.64-1.7,3.22-3.37A5.83,5.83,0,0,0,40.28,18c1.52,2.4,4.47,1.88,5.95-.16a3.83,3.83,0,0,0,.52-.86,2.78,2.78,0,0,0,2.67,2.61,3,3,0,0,0,2.74-2.1c.08.18.18.35.27.51,1.53,2.4,4.47,1.88,6-.16l.18-.26,0,1.27-1.36,1.24c-2.29,2.09-4,3.67-4.15,5.52C52.93,28,54.84,28.87,56.29,29A4.1,4.1,0,0,0,60,27.07a11,11,0,0,0,1.14-5.51L61,18.34A26,26,0,0,0,66,9.78s.84,0,1.74,0c.29,0,.37,0,.31.24s-1.13,4.39-.15,7.14a3.45,3.45,0,0,0,3.08,2.5,3,3,0,0,0,2.58-2l.21.38c1.52,2.4,4.46,1.88,6-.16A6.25,6.25,0,0,0,80.2,17,2.9,2.9,0,0,0,83,19.62c.92,0,1.81-.38,2.52-2.06a7.47,7.47,0,0,0,.14,1.54,1,1,0,0,0,.51.33,3.81,3.81,0,0,0,2,.1c.22,0,.39-.22.41-.68A28.26,28.26,0,0,1,89,14.13a14,14,0,0,1,1.45-4c.16-.27.33-.31.34,0,0,.58,0,2.28.27,4.57a10.65,10.65,0,0,0,.59,3,1.67,1.67,0,0,0,1.66,1c.33,0,1-.09,1-.67a18,18,0,0,1,.63-4.49,23.11,23.11,0,0,1,1.28-3.63c.09-.19.14,0,.14,0a32.25,32.25,0,0,0,.29,6.77c.61,2.7,2.4,3,3,3,1.33,0,2.42-1,2.78-3.67.09-.63,0-1.13-.44-1.13Z"/></svg>